<mxfile modified="2019-11-03T14:03:04.025Z" host="www.draw.io" agent="Mozilla/5.0 (Macintosh; Intel Mac OS X 10_13_6) AppleWebKit/537.36 (KHTML, like Gecko) Chrome/77.0.3865.120 Safari/537.36" etag="9X4EOTTK60Cs8Rf6ehQl" version="12.1.9" type="github" pages="1">
  <diagram id="3wP88udwANUkymrkbnxM" name="第 1 页">
    <mxGraphModel dx="1162" dy="421" grid="0" gridSize="10" guides="1" tooltips="1" connect="1" arrows="1" fold="1" page="0" pageScale="1" pageWidth="827" pageHeight="1169" math="0" shadow="0">
      <root>
        <mxCell id="0"/>
        <mxCell id="1" parent="0"/>
        <mxCell id="S6FNpbCSUPsFbbJEjk5P-1" value="Cluster" style="rounded=0;whiteSpace=wrap;html=1;" parent="1" vertex="1">
          <mxGeometry x="170" y="120" width="100" height="40" as="geometry"/>
        </mxCell>
        <mxCell id="S6FNpbCSUPsFbbJEjk5P-2" value="Invoker" style="rounded=0;whiteSpace=wrap;html=1;" parent="1" vertex="1">
          <mxGeometry x="480" y="120" width="100" height="40" as="geometry"/>
        </mxCell>
        <mxCell id="S6FNpbCSUPsFbbJEjk5P-13" style="edgeStyle=orthogonalEdgeStyle;rounded=0;orthogonalLoop=1;jettySize=auto;html=1;exitX=0.5;exitY=0;exitDx=0;exitDy=0;entryX=0.5;entryY=1;entryDx=0;entryDy=0;endArrow=classicThin;endFill=0;" parent="1" source="S6FNpbCSUPsFbbJEjk5P-3" target="S6FNpbCSUPsFbbJEjk5P-1" edge="1">
          <mxGeometry relative="1" as="geometry"/>
        </mxCell>
        <mxCell id="S6FNpbCSUPsFbbJEjk5P-25" style="edgeStyle=orthogonalEdgeStyle;rounded=0;orthogonalLoop=1;jettySize=auto;html=1;exitX=0.5;exitY=1;exitDx=0;exitDy=0;entryX=0.5;entryY=1;entryDx=0;entryDy=0;endArrow=openThin;endFill=0;dashed=1;" parent="1" source="S6FNpbCSUPsFbbJEjk5P-3" target="S6FNpbCSUPsFbbJEjk5P-14" edge="1">
          <mxGeometry relative="1" as="geometry"/>
        </mxCell>
        <mxCell id="S6FNpbCSUPsFbbJEjk5P-27" style="edgeStyle=orthogonalEdgeStyle;rounded=0;orthogonalLoop=1;jettySize=auto;html=1;exitX=1;exitY=0.5;exitDx=0;exitDy=0;entryX=0;entryY=0.5;entryDx=0;entryDy=0;endArrow=openThin;endFill=0;" parent="1" source="S6FNpbCSUPsFbbJEjk5P-3" target="S6FNpbCSUPsFbbJEjk5P-19" edge="1">
          <mxGeometry relative="1" as="geometry"/>
        </mxCell>
        <mxCell id="S6FNpbCSUPsFbbJEjk5P-3" value="MockClusterWrapper" style="rounded=0;whiteSpace=wrap;html=1;" parent="1" vertex="1">
          <mxGeometry x="50" y="230" width="120" height="40" as="geometry"/>
        </mxCell>
        <mxCell id="S6FNpbCSUPsFbbJEjk5P-15" style="edgeStyle=orthogonalEdgeStyle;rounded=0;orthogonalLoop=1;jettySize=auto;html=1;exitX=0.5;exitY=0;exitDx=0;exitDy=0;entryX=0.5;entryY=1;entryDx=0;entryDy=0;endArrow=classicThin;endFill=0;" parent="1" source="S6FNpbCSUPsFbbJEjk5P-14" target="S6FNpbCSUPsFbbJEjk5P-2" edge="1">
          <mxGeometry relative="1" as="geometry"/>
        </mxCell>
        <mxCell id="S6FNpbCSUPsFbbJEjk5P-28" style="edgeStyle=orthogonalEdgeStyle;rounded=0;orthogonalLoop=1;jettySize=auto;html=1;exitX=1;exitY=0.5;exitDx=0;exitDy=0;entryX=0;entryY=0.5;entryDx=0;entryDy=0;endArrow=openThin;endFill=0;" parent="1" source="S6FNpbCSUPsFbbJEjk5P-14" target="S6FNpbCSUPsFbbJEjk5P-16" edge="1">
          <mxGeometry relative="1" as="geometry"/>
        </mxCell>
        <mxCell id="S6FNpbCSUPsFbbJEjk5P-14" value="MockClusterInvoker" style="rounded=0;whiteSpace=wrap;html=1;" parent="1" vertex="1">
          <mxGeometry x="380" y="230" width="120" height="40" as="geometry"/>
        </mxCell>
        <mxCell id="S6FNpbCSUPsFbbJEjk5P-17" style="edgeStyle=orthogonalEdgeStyle;rounded=0;orthogonalLoop=1;jettySize=auto;html=1;exitX=0.5;exitY=0;exitDx=0;exitDy=0;entryX=0.75;entryY=1;entryDx=0;entryDy=0;endArrow=classicThin;endFill=0;" parent="1" source="S6FNpbCSUPsFbbJEjk5P-16" target="S6FNpbCSUPsFbbJEjk5P-2" edge="1">
          <mxGeometry relative="1" as="geometry"/>
        </mxCell>
        <mxCell id="S6FNpbCSUPsFbbJEjk5P-16" value="FailfastClusterInvoker" style="rounded=0;whiteSpace=wrap;html=1;" parent="1" vertex="1">
          <mxGeometry x="580" y="230" width="120" height="40" as="geometry"/>
        </mxCell>
        <mxCell id="S6FNpbCSUPsFbbJEjk5P-20" style="edgeStyle=orthogonalEdgeStyle;rounded=0;orthogonalLoop=1;jettySize=auto;html=1;exitX=0.5;exitY=0;exitDx=0;exitDy=0;entryX=0.75;entryY=1;entryDx=0;entryDy=0;endArrow=classicThin;endFill=0;" parent="1" source="S6FNpbCSUPsFbbJEjk5P-19" target="S6FNpbCSUPsFbbJEjk5P-1" edge="1">
          <mxGeometry relative="1" as="geometry"/>
        </mxCell>
        <mxCell id="S6FNpbCSUPsFbbJEjk5P-26" style="edgeStyle=orthogonalEdgeStyle;rounded=0;orthogonalLoop=1;jettySize=auto;html=1;exitX=0.5;exitY=1;exitDx=0;exitDy=0;entryX=0.5;entryY=1;entryDx=0;entryDy=0;dashed=1;endArrow=openThin;endFill=0;" parent="1" source="S6FNpbCSUPsFbbJEjk5P-19" target="S6FNpbCSUPsFbbJEjk5P-16" edge="1">
          <mxGeometry relative="1" as="geometry">
            <Array as="points">
              <mxPoint x="280" y="300"/>
              <mxPoint x="640" y="300"/>
            </Array>
          </mxGeometry>
        </mxCell>
        <mxCell id="S6FNpbCSUPsFbbJEjk5P-19" value="FailFastCluster" style="rounded=0;whiteSpace=wrap;html=1;" parent="1" vertex="1">
          <mxGeometry x="220" y="230" width="120" height="40" as="geometry"/>
        </mxCell>
        <mxCell id="S6FNpbCSUPsFbbJEjk5P-42" style="edgeStyle=orthogonalEdgeStyle;rounded=0;orthogonalLoop=1;jettySize=auto;html=1;exitX=0.5;exitY=0;exitDx=0;exitDy=0;entryX=0.486;entryY=1.038;entryDx=0;entryDy=0;entryPerimeter=0;endArrow=block;endFill=0;" parent="1" source="S6FNpbCSUPsFbbJEjk5P-30" target="S6FNpbCSUPsFbbJEjk5P-33" edge="1">
          <mxGeometry relative="1" as="geometry"/>
        </mxCell>
        <mxCell id="S6FNpbCSUPsFbbJEjk5P-30" value="NettyTransporter" style="rounded=0;whiteSpace=wrap;html=1;" parent="1" vertex="1">
          <mxGeometry x="90" y="623" width="100" height="40" as="geometry"/>
        </mxCell>
        <mxCell id="S6FNpbCSUPsFbbJEjk5P-83" style="edgeStyle=orthogonalEdgeStyle;rounded=0;orthogonalLoop=1;jettySize=auto;html=1;exitX=0.75;exitY=0;exitDx=0;exitDy=0;entryX=0.5;entryY=0;entryDx=0;entryDy=0;dashed=1;endArrow=openThin;endFill=0;" parent="1" source="S6FNpbCSUPsFbbJEjk5P-31" target="S6FNpbCSUPsFbbJEjk5P-76" edge="1">
          <mxGeometry relative="1" as="geometry">
            <Array as="points">
              <mxPoint x="315" y="448"/>
              <mxPoint x="1095" y="448"/>
            </Array>
          </mxGeometry>
        </mxCell>
        <mxCell id="S6FNpbCSUPsFbbJEjk5P-31" value="Transporter" style="swimlane;fontStyle=0;childLayout=stackLayout;horizontal=1;startSize=26;fillColor=#fff2cc;horizontalStack=0;resizeParent=1;resizeParentMax=0;resizeLast=0;collapsible=1;marginBottom=0;strokeColor=#d6b656;" parent="1" vertex="1">
          <mxGeometry x="210" y="481" width="140" height="78" as="geometry"/>
        </mxCell>
        <mxCell id="S6FNpbCSUPsFbbJEjk5P-32" value="bind" style="text;strokeColor=none;fillColor=none;align=center;verticalAlign=top;spacingLeft=4;spacingRight=4;overflow=hidden;rotatable=0;points=[[0,0.5],[1,0.5]];portConstraint=eastwest;" parent="S6FNpbCSUPsFbbJEjk5P-31" vertex="1">
          <mxGeometry y="26" width="140" height="26" as="geometry"/>
        </mxCell>
        <mxCell id="S6FNpbCSUPsFbbJEjk5P-33" value="connect" style="text;strokeColor=none;fillColor=none;align=center;verticalAlign=top;spacingLeft=4;spacingRight=4;overflow=hidden;rotatable=0;points=[[0,0.5],[1,0.5]];portConstraint=eastwest;" parent="S6FNpbCSUPsFbbJEjk5P-31" vertex="1">
          <mxGeometry y="52" width="140" height="26" as="geometry"/>
        </mxCell>
        <mxCell id="S6FNpbCSUPsFbbJEjk5P-36" value="Server" style="rounded=0;whiteSpace=wrap;html=1;" parent="1" vertex="1">
          <mxGeometry x="440" y="467" width="100" height="40" as="geometry"/>
        </mxCell>
        <mxCell id="S6FNpbCSUPsFbbJEjk5P-37" value="Client" style="rounded=0;whiteSpace=wrap;html=1;" parent="1" vertex="1">
          <mxGeometry x="440" y="533" width="100" height="40" as="geometry"/>
        </mxCell>
        <mxCell id="S6FNpbCSUPsFbbJEjk5P-38" style="edgeStyle=orthogonalEdgeStyle;rounded=0;orthogonalLoop=1;jettySize=auto;html=1;exitX=1;exitY=0.5;exitDx=0;exitDy=0;entryX=0;entryY=0.5;entryDx=0;entryDy=0;endArrow=openThin;endFill=0;" parent="1" source="S6FNpbCSUPsFbbJEjk5P-32" target="S6FNpbCSUPsFbbJEjk5P-36" edge="1">
          <mxGeometry relative="1" as="geometry"/>
        </mxCell>
        <mxCell id="S6FNpbCSUPsFbbJEjk5P-39" style="edgeStyle=orthogonalEdgeStyle;rounded=0;orthogonalLoop=1;jettySize=auto;html=1;exitX=1;exitY=0.5;exitDx=0;exitDy=0;entryX=0;entryY=0.5;entryDx=0;entryDy=0;endArrow=openThin;endFill=0;" parent="1" source="S6FNpbCSUPsFbbJEjk5P-33" target="S6FNpbCSUPsFbbJEjk5P-37" edge="1">
          <mxGeometry relative="1" as="geometry"/>
        </mxCell>
        <mxCell id="S6FNpbCSUPsFbbJEjk5P-44" style="edgeStyle=orthogonalEdgeStyle;rounded=0;orthogonalLoop=1;jettySize=auto;html=1;exitX=0.5;exitY=0;exitDx=0;exitDy=0;entryX=0.65;entryY=0.962;entryDx=0;entryDy=0;entryPerimeter=0;endArrow=block;endFill=0;" parent="1" source="S6FNpbCSUPsFbbJEjk5P-43" target="S6FNpbCSUPsFbbJEjk5P-33" edge="1">
          <mxGeometry relative="1" as="geometry"/>
        </mxCell>
        <mxCell id="S6FNpbCSUPsFbbJEjk5P-43" value="MinaTransporter" style="rounded=0;whiteSpace=wrap;html=1;" parent="1" vertex="1">
          <mxGeometry x="230" y="623" width="100" height="40" as="geometry"/>
        </mxCell>
        <mxCell id="S6FNpbCSUPsFbbJEjk5P-47" value="MinaTransporter" style="rounded=0;whiteSpace=wrap;html=1;" parent="1" vertex="1">
          <mxGeometry x="-61" y="487" width="100" height="40" as="geometry"/>
        </mxCell>
        <mxCell id="S6FNpbCSUPsFbbJEjk5P-48" value="Exchanger" style="swimlane;fontStyle=0;childLayout=stackLayout;horizontal=1;startSize=26;fillColor=none;horizontalStack=0;resizeParent=1;resizeParentMax=0;resizeLast=0;collapsible=1;marginBottom=0;" parent="1" vertex="1">
          <mxGeometry x="630" y="475" width="140" height="78" as="geometry">
            <mxRectangle x="-90" y="565" width="84" height="26" as="alternateBounds"/>
          </mxGeometry>
        </mxCell>
        <mxCell id="S6FNpbCSUPsFbbJEjk5P-49" value="bind" style="text;strokeColor=none;fillColor=none;align=center;verticalAlign=top;spacingLeft=4;spacingRight=4;overflow=hidden;rotatable=0;points=[[0,0.5],[1,0.5]];portConstraint=eastwest;" parent="S6FNpbCSUPsFbbJEjk5P-48" vertex="1">
          <mxGeometry y="26" width="140" height="26" as="geometry"/>
        </mxCell>
        <mxCell id="S6FNpbCSUPsFbbJEjk5P-50" value="connect" style="text;strokeColor=none;fillColor=none;align=center;verticalAlign=top;spacingLeft=4;spacingRight=4;overflow=hidden;rotatable=0;points=[[0,0.5],[1,0.5]];portConstraint=eastwest;" parent="S6FNpbCSUPsFbbJEjk5P-48" vertex="1">
          <mxGeometry y="52" width="140" height="26" as="geometry"/>
        </mxCell>
        <mxCell id="S6FNpbCSUPsFbbJEjk5P-51" style="edgeStyle=orthogonalEdgeStyle;rounded=0;orthogonalLoop=1;jettySize=auto;html=1;exitX=0;exitY=0.5;exitDx=0;exitDy=0;entryX=1;entryY=0.5;entryDx=0;entryDy=0;endArrow=openThin;endFill=0;" parent="1" source="S6FNpbCSUPsFbbJEjk5P-49" target="S6FNpbCSUPsFbbJEjk5P-36" edge="1">
          <mxGeometry relative="1" as="geometry"/>
        </mxCell>
        <mxCell id="S6FNpbCSUPsFbbJEjk5P-52" style="edgeStyle=orthogonalEdgeStyle;rounded=0;orthogonalLoop=1;jettySize=auto;html=1;exitX=0;exitY=0.5;exitDx=0;exitDy=0;entryX=1;entryY=0.5;entryDx=0;entryDy=0;endArrow=openThin;endFill=0;" parent="1" source="S6FNpbCSUPsFbbJEjk5P-50" target="S6FNpbCSUPsFbbJEjk5P-37" edge="1">
          <mxGeometry relative="1" as="geometry"/>
        </mxCell>
        <mxCell id="S6FNpbCSUPsFbbJEjk5P-54" style="edgeStyle=orthogonalEdgeStyle;rounded=0;orthogonalLoop=1;jettySize=auto;html=1;exitX=0.5;exitY=0;exitDx=0;exitDy=0;entryX=0.471;entryY=0.962;entryDx=0;entryDy=0;entryPerimeter=0;endArrow=openThin;endFill=0;" parent="1" source="S6FNpbCSUPsFbbJEjk5P-53" target="S6FNpbCSUPsFbbJEjk5P-50" edge="1">
          <mxGeometry relative="1" as="geometry"/>
        </mxCell>
        <mxCell id="S6FNpbCSUPsFbbJEjk5P-60" style="edgeStyle=orthogonalEdgeStyle;rounded=0;orthogonalLoop=1;jettySize=auto;html=1;exitX=0;exitY=0.5;exitDx=0;exitDy=0;entryX=1;entryY=0.5;entryDx=0;entryDy=0;endArrow=openThin;endFill=0;" parent="1" source="S6FNpbCSUPsFbbJEjk5P-53" target="S6FNpbCSUPsFbbJEjk5P-58" edge="1">
          <mxGeometry relative="1" as="geometry"/>
        </mxCell>
        <mxCell id="S6FNpbCSUPsFbbJEjk5P-53" value="HeaderExchanger" style="rounded=0;whiteSpace=wrap;html=1;fillColor=#fff2cc;strokeColor=#d6b656;" parent="1" vertex="1">
          <mxGeometry x="634" y="613" width="124" height="40" as="geometry"/>
        </mxCell>
        <mxCell id="S6FNpbCSUPsFbbJEjk5P-59" style="edgeStyle=orthogonalEdgeStyle;rounded=0;orthogonalLoop=1;jettySize=auto;html=1;exitX=0.5;exitY=0;exitDx=0;exitDy=0;entryX=0.5;entryY=1;entryDx=0;entryDy=0;endArrow=block;endFill=0;" parent="1" source="S6FNpbCSUPsFbbJEjk5P-58" target="S6FNpbCSUPsFbbJEjk5P-37" edge="1">
          <mxGeometry relative="1" as="geometry"/>
        </mxCell>
        <mxCell id="S6FNpbCSUPsFbbJEjk5P-66" style="edgeStyle=orthogonalEdgeStyle;rounded=0;orthogonalLoop=1;jettySize=auto;html=1;exitX=0.5;exitY=1;exitDx=0;exitDy=0;endArrow=block;endFill=0;" parent="1" source="S6FNpbCSUPsFbbJEjk5P-58" target="S6FNpbCSUPsFbbJEjk5P-63" edge="1">
          <mxGeometry relative="1" as="geometry"/>
        </mxCell>
        <mxCell id="S6FNpbCSUPsFbbJEjk5P-74" style="edgeStyle=orthogonalEdgeStyle;rounded=0;orthogonalLoop=1;jettySize=auto;html=1;exitX=0;exitY=0.5;exitDx=0;exitDy=0;entryX=0.864;entryY=1;entryDx=0;entryDy=0;entryPerimeter=0;endArrow=block;endFill=0;dashed=1;" parent="1" source="S6FNpbCSUPsFbbJEjk5P-58" target="S6FNpbCSUPsFbbJEjk5P-33" edge="1">
          <mxGeometry relative="1" as="geometry">
            <Array as="points">
              <mxPoint x="424" y="620"/>
              <mxPoint x="331" y="620"/>
            </Array>
          </mxGeometry>
        </mxCell>
        <mxCell id="S6FNpbCSUPsFbbJEjk5P-58" value="HeaderExchangerClient" style="rounded=0;whiteSpace=wrap;html=1;" parent="1" vertex="1">
          <mxGeometry x="424" y="613" width="132" height="40" as="geometry"/>
        </mxCell>
        <mxCell id="S6FNpbCSUPsFbbJEjk5P-63" value="ExchangeChannel" style="swimlane;fontStyle=0;childLayout=stackLayout;horizontal=1;startSize=26;fillColor=none;horizontalStack=0;resizeParent=1;resizeParentMax=0;resizeLast=0;collapsible=1;marginBottom=0;" parent="1" vertex="1">
          <mxGeometry x="420" y="712" width="140" height="78" as="geometry">
            <mxRectangle x="-90" y="565" width="84" height="26" as="alternateBounds"/>
          </mxGeometry>
        </mxCell>
        <mxCell id="S6FNpbCSUPsFbbJEjk5P-64" value="request" style="text;strokeColor=none;fillColor=none;align=center;verticalAlign=top;spacingLeft=4;spacingRight=4;overflow=hidden;rotatable=0;points=[[0,0.5],[1,0.5]];portConstraint=eastwest;" parent="S6FNpbCSUPsFbbJEjk5P-63" vertex="1">
          <mxGeometry y="26" width="140" height="26" as="geometry"/>
        </mxCell>
        <mxCell id="S6FNpbCSUPsFbbJEjk5P-65" value="close" style="text;strokeColor=none;fillColor=none;align=center;verticalAlign=top;spacingLeft=4;spacingRight=4;overflow=hidden;rotatable=0;points=[[0,0.5],[1,0.5]];portConstraint=eastwest;" parent="S6FNpbCSUPsFbbJEjk5P-63" vertex="1">
          <mxGeometry y="52" width="140" height="26" as="geometry"/>
        </mxCell>
        <mxCell id="S6FNpbCSUPsFbbJEjk5P-67" value="Channel" style="rounded=0;whiteSpace=wrap;html=1;" parent="1" vertex="1">
          <mxGeometry x="450" y="827" width="100" height="40" as="geometry"/>
        </mxCell>
        <mxCell id="S6FNpbCSUPsFbbJEjk5P-68" value="Endpoint" style="rounded=0;whiteSpace=wrap;html=1;" parent="1" vertex="1">
          <mxGeometry x="450" y="889" width="100" height="40" as="geometry"/>
        </mxCell>
        <mxCell id="S6FNpbCSUPsFbbJEjk5P-71" value="" style="edgeStyle=orthogonalEdgeStyle;rounded=0;orthogonalLoop=1;jettySize=auto;html=1;endArrow=block;endFill=0;" parent="1" edge="1">
          <mxGeometry relative="1" as="geometry">
            <mxPoint x="520" y="816" as="sourcePoint"/>
          </mxGeometry>
        </mxCell>
        <mxCell id="S6FNpbCSUPsFbbJEjk5P-76" value="ChannelHandler" style="swimlane;fontStyle=0;childLayout=stackLayout;horizontal=1;startSize=26;fillColor=none;horizontalStack=0;resizeParent=1;resizeParentMax=0;resizeLast=0;collapsible=1;marginBottom=0;" parent="1" vertex="1">
          <mxGeometry x="1025" y="507" width="140" height="78" as="geometry">
            <mxRectangle x="-90" y="565" width="84" height="26" as="alternateBounds"/>
          </mxGeometry>
        </mxCell>
        <mxCell id="S6FNpbCSUPsFbbJEjk5P-77" value="sent(channel,msg)" style="text;strokeColor=none;fillColor=none;align=center;verticalAlign=top;spacingLeft=4;spacingRight=4;overflow=hidden;rotatable=0;points=[[0,0.5],[1,0.5]];portConstraint=eastwest;" parent="S6FNpbCSUPsFbbJEjk5P-76" vertex="1">
          <mxGeometry y="26" width="140" height="26" as="geometry"/>
        </mxCell>
        <mxCell id="S6FNpbCSUPsFbbJEjk5P-78" value="received(received,msg)" style="text;strokeColor=none;fillColor=none;align=center;verticalAlign=top;spacingLeft=4;spacingRight=4;overflow=hidden;rotatable=0;points=[[0,0.5],[1,0.5]];portConstraint=eastwest;" parent="S6FNpbCSUPsFbbJEjk5P-76" vertex="1">
          <mxGeometry y="52" width="140" height="26" as="geometry"/>
        </mxCell>
        <mxCell id="S6FNpbCSUPsFbbJEjk5P-79" value="ExchangeHandler" style="rounded=0;whiteSpace=wrap;html=1;fillColor=#fff2cc;strokeColor=#d6b656;" parent="1" vertex="1">
          <mxGeometry x="834" y="628.5" width="124" height="40" as="geometry"/>
        </mxCell>
        <mxCell id="S6FNpbCSUPsFbbJEjk5P-85" style="edgeStyle=orthogonalEdgeStyle;rounded=0;orthogonalLoop=1;jettySize=auto;html=1;exitX=0.5;exitY=0;exitDx=0;exitDy=0;entryX=0.264;entryY=1;entryDx=0;entryDy=0;entryPerimeter=0;endArrow=block;endFill=0;" parent="1" source="S6FNpbCSUPsFbbJEjk5P-82" target="S6FNpbCSUPsFbbJEjk5P-78" edge="1">
          <mxGeometry relative="1" as="geometry"/>
        </mxCell>
        <mxCell id="4KYblLX-J10OmJDzWOq2-3" style="edgeStyle=orthogonalEdgeStyle;rounded=0;orthogonalLoop=1;jettySize=auto;html=1;exitX=0;exitY=0.5;exitDx=0;exitDy=0;entryX=1;entryY=0.5;entryDx=0;entryDy=0;" edge="1" parent="1" source="S6FNpbCSUPsFbbJEjk5P-82" target="S6FNpbCSUPsFbbJEjk5P-79">
          <mxGeometry relative="1" as="geometry"/>
        </mxCell>
        <mxCell id="S6FNpbCSUPsFbbJEjk5P-82" value="&lt;pre style=&quot;font-family: &amp;#34;menlo&amp;#34; ; font-size: 9pt&quot;&gt;HeaderExchangeHandler&lt;/pre&gt;" style="rounded=0;whiteSpace=wrap;html=1;fillColor=#fff2cc;strokeColor=#d6b656;" parent="1" vertex="1">
          <mxGeometry x="987.5" y="629" width="149" height="40" as="geometry"/>
        </mxCell>
        <mxCell id="cHIJ3ol1UEYUOy4D1FIM-1" value="" style="rounded=0;whiteSpace=wrap;html=1;" parent="1" vertex="1">
          <mxGeometry x="-52" y="950" width="120" height="60" as="geometry"/>
        </mxCell>
        <mxCell id="4KYblLX-J10OmJDzWOq2-2" style="edgeStyle=orthogonalEdgeStyle;rounded=0;orthogonalLoop=1;jettySize=auto;html=1;entryX=1;entryY=0.5;entryDx=0;entryDy=0;" edge="1" parent="1" source="4KYblLX-J10OmJDzWOq2-1" target="S6FNpbCSUPsFbbJEjk5P-82">
          <mxGeometry relative="1" as="geometry"/>
        </mxCell>
        <mxCell id="4KYblLX-J10OmJDzWOq2-1" value="DecodeHandler" style="rounded=0;whiteSpace=wrap;html=1;fillColor=#fff2cc;strokeColor=#d6b656;" vertex="1" parent="1">
          <mxGeometry x="1183.5" y="628.5" width="149" height="40" as="geometry"/>
        </mxCell>
        <mxCell id="4KYblLX-J10OmJDzWOq2-5" value="reply" style="rounded=0;whiteSpace=wrap;html=1;" vertex="1" parent="1">
          <mxGeometry x="836" y="669" width="122" height="25" as="geometry"/>
        </mxCell>
        <mxCell id="4KYblLX-J10OmJDzWOq2-8" value="ExchangeHandler&lt;br&gt;DubboProtocol内部实现" style="rounded=0;whiteSpace=wrap;html=1;fillColor=#fff2cc;strokeColor=#d6b656;" vertex="1" parent="1">
          <mxGeometry x="822.5" y="738" width="147" height="40" as="geometry"/>
        </mxCell>
        <mxCell id="4KYblLX-J10OmJDzWOq2-9" style="edgeStyle=orthogonalEdgeStyle;rounded=0;orthogonalLoop=1;jettySize=auto;html=1;exitX=0.5;exitY=0;exitDx=0;exitDy=0;entryX=0.264;entryY=1;entryDx=0;entryDy=0;entryPerimeter=0;endArrow=block;endFill=0;" edge="1" parent="1">
          <mxGeometry relative="1" as="geometry">
            <mxPoint x="895" y="737.5" as="sourcePoint"/>
            <mxPoint x="895" y="693.5" as="targetPoint"/>
          </mxGeometry>
        </mxCell>
        <mxCell id="4KYblLX-J10OmJDzWOq2-10" value="nettyDecoder" style="rounded=0;whiteSpace=wrap;html=1;" vertex="1" parent="1">
          <mxGeometry x="320" y="1189" width="120" height="60" as="geometry"/>
        </mxCell>
        <mxCell id="4KYblLX-J10OmJDzWOq2-11" value="AllChannelHandler" style="rounded=0;whiteSpace=wrap;html=1;fillColor=#fff2cc;strokeColor=#d6b656;" vertex="1" parent="1">
          <mxGeometry x="1368.5" y="628.5" width="149" height="40" as="geometry"/>
        </mxCell>
        <mxCell id="4KYblLX-J10OmJDzWOq2-12" value="Text" style="text;html=1;resizable=0;points=[];autosize=1;align=left;verticalAlign=top;spacingTop=-4;" vertex="1" parent="1">
          <mxGeometry x="894" y="518" width="32" height="14" as="geometry"/>
        </mxCell>
        <mxCell id="4KYblLX-J10OmJDzWOq2-13" value="invoker" style="rounded=0;whiteSpace=wrap;html=1;" vertex="1" parent="1">
          <mxGeometry x="861" y="1008" width="109" height="42" as="geometry"/>
        </mxCell>
        <mxCell id="4KYblLX-J10OmJDzWOq2-15" style="edgeStyle=orthogonalEdgeStyle;rounded=0;orthogonalLoop=1;jettySize=auto;html=1;exitX=1;exitY=0.5;exitDx=0;exitDy=0;entryX=0;entryY=0.5;entryDx=0;entryDy=0;" edge="1" parent="1" source="4KYblLX-J10OmJDzWOq2-14" target="4KYblLX-J10OmJDzWOq2-13">
          <mxGeometry relative="1" as="geometry"/>
        </mxCell>
        <mxCell id="4KYblLX-J10OmJDzWOq2-14" value="Finvoker" style="rounded=0;whiteSpace=wrap;html=1;" vertex="1" parent="1">
          <mxGeometry x="725" y="1008" width="109" height="42" as="geometry"/>
        </mxCell>
        <mxCell id="4KYblLX-J10OmJDzWOq2-19" style="edgeStyle=orthogonalEdgeStyle;rounded=0;orthogonalLoop=1;jettySize=auto;html=1;exitX=1;exitY=0.5;exitDx=0;exitDy=0;entryX=0;entryY=0.5;entryDx=0;entryDy=0;" edge="1" parent="1" source="4KYblLX-J10OmJDzWOq2-16" target="4KYblLX-J10OmJDzWOq2-14">
          <mxGeometry relative="1" as="geometry"/>
        </mxCell>
        <mxCell id="4KYblLX-J10OmJDzWOq2-16" value="Finvoker" style="rounded=0;whiteSpace=wrap;html=1;" vertex="1" parent="1">
          <mxGeometry x="579.5" y="1008" width="109" height="42" as="geometry"/>
        </mxCell>
      </root>
    </mxGraphModel>
  </diagram>
</mxfile>
